<svg xmlns="http://www.w3.org/2000/svg" width="1000" height="180" viewBox="0 0 1000 180" style="color:#3d6158"><g id="u05d0" transform="translate(25 28) scale(1.15)" fill="none" stroke="currentColor" stroke-width="2.5" stroke-linecap="round" stroke-linejoin="round"><path d="M50 7L82 29 73 78 50 93 18 71 27 22Z M30 18L30 78L68 78"/></g><g id="u05d1" transform="translate(185 28) scale(1.15)" fill="none" stroke="currentColor" stroke-width="2.5" stroke-linecap="round" stroke-linejoin="round"><path d="M50 7L82 29 73 78 50 93 18 71 27 22Z M26 20L72 20L72 76L30 76"/></g><g id="u05d2" transform="translate(345 28) scale(1.15)" fill="none" stroke="currentColor" stroke-width="2.5" stroke-linecap="round" stroke-linejoin="round"><path d="M50 7L82 29 73 78 50 93 18 71 27 22Z M24 20L68 48L24 78"/></g><g id="u05d3" transform="translate(505 28) scale(1.15)" fill="none" stroke="currentColor" stroke-width="2.5" stroke-linecap="round" stroke-linejoin="round"><path d="M50 7L82 29 73 78 50 93 18 71 27 22Z M68 20L26 48L68 78"/></g><g id="u05d4" transform="translate(665 28) scale(1.15)" fill="none" stroke="currentColor" stroke-width="2.5" stroke-linecap="round" stroke-linejoin="round"><path d="M50 7L82 29 73 78 50 93 18 71 27 22Z M26 20L70 20L45 48L70 78L26 78"/></g><g id="u05d5" transform="translate(825 28) scale(1.15)" fill="none" stroke="currentColor" stroke-width="2.5" stroke-linecap="round" stroke-linejoin="round"><path d="M50 7L82 29 73 78 50 93 18 71 27 22Z M26 22L70 48L26 76L26 22"/></g></svg>