<svg xmlns="http://www.w3.org/2000/svg" width="128" height="128" viewBox="0 0 128 128" role="img" aria-labelledby="title"><title id="title">힌트</title><g transform="translate(12 12) scale(.8)" stroke="#384e49" stroke-width="4" stroke-linecap="round" stroke-linejoin="round"><path d="M44 78c0-11-13-17-13-34a33 33 0 0 1 66 0c0 17-13 23-13 34z" fill="#f4ecd6" transform="translate(0 9) scale(1 .91)"/><path d="M48 82h32v15H48z" fill="#a3b49b"/><path d="M52 105h24M57 113h14M64 79V59m-13-8 13 8 13-8" fill="none"/><path d="M64 14v-7M26 24l-6-6M102 24l6-6" fill="none" stroke="#a98e55"/></g></svg>
