<svg xmlns="http://www.w3.org/2000/svg" width="1600" height="800" viewBox="0 0 1600 800"><defs><radialGradient id="glow"><stop stop-color="#fffced" stop-opacity=".9"/><stop offset=".25" stop-color="#ffe4a1" stop-opacity=".45"/><stop offset="1" stop-color="#ffe4a1" stop-opacity="0"/></radialGradient><linearGradient id="trail"><stop stop-color="#e8bf66" stop-opacity="0"/><stop offset=".35" stop-color="#fff3c6" stop-opacity=".7"/><stop offset=".7" stop-color="#e5c574" stop-opacity=".5"/><stop offset="1" stop-color="#fffce7" stop-opacity="0"/></linearGradient></defs><style>@keyframes shimmer{0%,100%{opacity:.65}50%{opacity:1}}@keyframes dust{0%,100%{opacity:.25}50%{opacity:.85}}.twinkle{animation:shimmer 3.8s ease-in-out infinite}.dust{animation:dust 5s ease-in-out infinite}@media(prefers-reduced-motion:reduce){.twinkle,.dust{animation:none}}</style><g class="twinkle" style="animation-delay:0s;transform-origin:270px 350px"><circle cx="270" cy="350" r="48" fill="url(#glow)"/><path d="M246 350 Q267 347 270 314.0 Q273 347 294 350 Q273 353 270 386.0 Q267 353 246 350" fill="#f4fcff"/><circle cx="270" cy="350" r="3" fill="#fffef4"/></g><g class="twinkle" style="animation-delay:-1s;transform-origin:850px 285px"><circle cx="850" cy="285" r="64" fill="url(#glow)"/><path d="M818 285 Q847 282 850 237.0 Q853 282 882 285 Q853 288 850 333.0 Q847 288 818 285" fill="#f4fcff"/><circle cx="850" cy="285" r="3" fill="#fffef4"/></g><g class="twinkle" style="animation-delay:-2s;transform-origin:1310px 450px"><circle cx="1310" cy="450" r="50" fill="url(#glow)"/><path d="M1285 450 Q1307 447 1310 412.5 Q1313 447 1335 450 Q1313 453 1310 487.5 Q1307 453 1285 450" fill="#f4fcff"/><circle cx="1310" cy="450" r="3" fill="#fffef4"/></g><g stroke="#fff9e2" stroke-width="1.3" opacity=".7"><path d="M180 350H360 M740 285H960 M1210 450H1410"/></g><g class="twinkle" style="animation-delay:-1s;transform-origin:430px 240px"><circle cx="430" cy="240" r="40.0" fill="url(#glow)"/><path d="M414 240 Q428 238 430 216.0 Q432 238 446 240 Q432 242 430 264.0 Q428 242 414 240" fill="#fffef3"/><circle cx="430" cy="240" r="3" fill="white"/></g><g class="twinkle" style="animation-delay:-3s;transform-origin:1060px 340px"><circle cx="1060" cy="340" r="47.5" fill="url(#glow)"/><path d="M1041 340 Q1058 338 1060 311.5 Q1062 338 1079 340 Q1062 342 1060 368.5 Q1058 342 1041 340" fill="#fffef3"/><circle cx="1060" cy="340" r="3" fill="white"/></g><g class="twinkle" style="animation-delay:-2s;transform-origin:1395px 560px"><circle cx="1395" cy="560" r="40.0" fill="url(#glow)"/><path d="M1379 560 Q1393 558 1395 536.0 Q1397 558 1411 560 Q1397 562 1395 584.0 Q1393 562 1379 560" fill="#fffef3"/><circle cx="1395" cy="560" r="3" fill="white"/></g></svg>